<svg width="1180" height="746" viewBox="0 0 1180 746" fill="none" xmlns="http://www.w3.org/2000/svg">
<path opacity="0.2" fill-rule="evenodd" clip-rule="evenodd" d="M76.0084 693.186V662.218H145.116V723.112L144.676 723.409C131.788 732.115 120.325 738.091 110.296 741.297L110.292 741.299C100.328 744.441 88.5263 746 74.9064 746C58.1237 746 44.3332 743.166 33.5967 737.426L33.5945 737.425C22.9265 731.688 14.6403 723.146 8.73888 711.834L8.7368 711.83C2.90291 700.524 0 687.572 0 673C0 657.663 3.19273 644.286 9.61657 632.903C16.0479 621.444 25.4717 612.754 37.8551 606.843L37.859 606.841C47.5676 602.256 60.5466 600 76.7275 600C92.286 600 104.028 601.392 111.866 604.24C119.75 607.082 126.288 611.515 131.454 617.541C136.68 623.498 140.574 631.045 143.161 640.148L143.463 641.207L99.6203 648.962L99.3491 648.136C97.6849 643.066 94.8712 639.238 90.924 636.59L90.918 636.586C87.0386 633.943 82.0136 632.582 75.769 632.582C66.5127 632.582 59.1992 635.769 53.7217 642.112C48.3284 648.368 45.5288 658.434 45.5288 672.525C45.5288 687.519 48.3669 697.98 53.8094 704.164C59.335 710.369 67.0251 713.513 77.0151 713.513C81.7728 713.513 86.302 712.831 90.6074 711.47C94.7939 710.147 99.6063 707.907 105.051 704.728V693.186H76.0084ZM106.057 692.188V705.297C100.37 708.653 95.3222 711.028 90.9132 712.421C86.5041 713.814 81.8714 714.511 77.0151 714.511C66.7911 714.511 58.8037 711.281 53.0528 704.822C47.3657 698.362 44.5222 687.597 44.5222 672.525C44.5222 658.34 47.3338 647.986 52.9569 641.463C58.644 634.877 66.248 631.584 75.769 631.584C82.159 631.584 87.3987 632.978 91.4883 635.764C95.6417 638.55 98.5811 642.572 100.306 647.828L142.192 640.418C142.101 640.095 142.007 639.774 141.912 639.455C139.359 630.895 135.619 623.807 130.691 618.191C125.643 612.301 119.253 607.964 111.521 605.177C103.853 602.391 92.2551 600.998 76.7275 600.998C60.6248 600.998 47.813 603.246 38.292 607.742C26.0872 613.568 16.8218 622.117 10.4957 633.389C4.16968 644.598 1.00666 657.802 1.00666 673C1.00666 687.438 3.88214 700.23 9.63309 711.376C15.4479 722.521 23.5951 730.912 34.0746 736.548C44.618 742.184 58.2286 745.002 74.9064 745.002C88.453 745.002 100.147 743.451 109.987 740.348C119.892 737.182 131.266 731.26 144.109 722.585V663.216H77.0151V692.188H106.057ZM247.546 742.628L240.645 719.64H191.187L184.381 742.628H140.003L192.816 603.372H240.166L290.789 736.855V603.372H347.915L369.961 688.103L391.91 603.372H448.845V742.628H413.38V636.429L385.872 742.628H353.762L326.349 636.429V742.628H247.546ZM246.795 743.625L239.894 720.638H191.94L185.135 743.625H138.55L192.119 602.375H240.863L289.783 731.365V602.375H348.695L369.959 684.1L391.129 602.375H449.851V743.625H412.374V644.327L386.653 743.625H352.981L327.356 644.354V743.625H246.795ZM216.012 639.469L200.58 689.528H231.539L216.012 639.469ZM216.015 642.873L201.94 688.531H230.177L216.015 642.873ZM459.834 602.375H578.209V634.102H505.363V654.239H572.937V684.637H505.363V710.093H580.317V743.625H459.834V602.375ZM504.357 711.091V683.639H571.93V655.237H504.357V633.104H577.202V603.372H460.841V742.628H579.311V711.091H504.357ZM745.27 737.228L745.268 737.229C734.663 743.097 721.478 746 705.766 746C689.82 746 676.527 743.484 665.933 738.396L665.931 738.395C655.384 733.298 646.841 725.237 640.297 714.258C633.729 703.237 630.477 689.497 630.477 673.095C630.477 650.171 636.925 632.19 649.941 619.29C662.956 606.392 681.036 600 704.041 600C727.609 600 745.916 606.29 758.81 619.003C771.7 631.65 778.085 649.348 778.085 671.955C778.085 688.334 775.289 701.87 769.63 712.506C764.043 723.065 755.915 731.31 745.27 737.228ZM768.739 712.041C774.299 701.592 777.078 688.23 777.078 671.955C777.078 649.537 770.752 632.123 758.1 619.711C745.448 607.235 727.428 600.998 704.041 600.998C681.229 600.998 663.433 607.33 650.653 619.996C637.873 632.661 631.483 650.361 631.483 673.095C631.483 689.37 634.71 702.922 641.164 713.751C647.618 724.58 656.021 732.495 666.372 737.498C676.788 742.501 689.919 745.002 705.766 745.002C721.358 745.002 734.361 742.121 744.777 736.358C755.257 730.532 763.244 722.426 768.739 712.041ZM724.853 643.359L724.846 643.351C719.759 637.52 712.832 634.577 703.945 634.577C695.461 634.577 688.72 637.538 683.623 643.442C678.557 649.31 675.91 659.175 675.91 673.285C675.91 687.264 678.523 697.068 683.528 702.938C688.617 708.833 695.512 711.803 704.329 711.803C713.419 711.803 720.334 708.885 725.221 703.134C730.088 697.406 732.652 686.925 732.652 671.385C732.652 658.376 729.982 649.108 724.853 643.359ZM682.763 703.587C677.523 697.444 674.903 687.343 674.903 673.285C674.903 659.1 677.555 648.936 682.858 642.793C688.162 636.651 695.191 633.579 703.945 633.579C713.083 633.579 720.304 636.619 725.607 642.698C730.975 648.714 733.659 658.277 733.659 671.385C733.659 686.964 731.103 697.761 725.991 703.777C720.879 709.793 713.658 712.801 704.329 712.801C695.255 712.801 688.066 709.729 682.763 703.587ZM760.972 602.375H808.601L839.484 700.222L869.899 602.375H1030.68V634.102H957.833V654.239H1025.41V684.637H957.833V710.093H1032.79V743.625H912.304V612.727L863.291 743.625H814.833L760.972 602.375ZM913.31 607.171V742.628H1031.78V711.091H956.826V683.639H1024.4V655.237H956.826V633.104H1029.67V603.372H870.642L839.491 703.587L807.861 603.372H762.429L815.529 742.628H862.591L913.31 607.171ZM1039.13 743.625V602.375H1112.5C1125.95 602.375 1136.34 603.515 1143.58 605.843C1150.88 608.191 1156.78 612.569 1161.25 618.948C1165.73 625.287 1167.95 633.001 1167.95 642.033C1167.95 649.903 1166.26 656.765 1162.83 662.579L1162.83 662.584C1159.41 668.304 1154.72 672.949 1148.77 676.514L1148.25 675.66C1154.07 672.177 1158.64 667.649 1161.96 662.076C1165.28 656.44 1166.94 649.759 1166.94 642.033C1166.94 633.168 1164.77 625.663 1160.42 619.521C1156.08 613.315 1150.36 609.072 1143.27 606.792C1136.18 604.512 1125.92 603.372 1112.5 603.372H1040.13V742.628H1083.75V686.109H1087.58C1091.54 686.109 1095.09 687.185 1098.22 689.338C1100.52 690.985 1103.14 694.563 1106.08 700.072L1129.27 742.628H1178.35L1157.36 702.257C1156.34 700.23 1154.29 697.349 1151.22 693.613C1148.22 689.877 1145.92 687.438 1144.32 686.299C1142.24 684.791 1139.06 683.284 1134.79 681.777C1134.22 681.574 1133.63 681.372 1133.01 681.169C1133.64 681.028 1134.25 680.884 1134.84 680.736C1140.43 679.354 1144.9 677.662 1148.25 675.66L1148.77 676.514C1145.61 678.407 1141.51 680.011 1136.51 681.339C1140.14 682.697 1142.96 684.077 1144.91 685.489C1146.63 686.717 1149.01 689.253 1152 692.983C1155.08 696.724 1157.18 699.675 1158.26 701.805C1158.26 701.807 1158.26 701.809 1158.26 701.811L1180 743.625H1128.67L1105.19 700.546L1105.19 700.538C1102.26 695.046 1099.73 691.656 1097.64 690.153C1094.68 688.124 1091.34 687.106 1087.58 687.106H1084.75V743.625H1039.13ZM1113.35 656.921L1113.36 656.918C1115.99 656.397 1118.11 655.076 1119.75 652.925L1119.75 652.918L1119.76 652.912C1121.47 650.748 1122.32 648.275 1122.32 645.453C1122.32 641.184 1120.97 638.039 1118.37 635.861C1117.1 634.799 1115.2 633.947 1112.59 633.365C1109.99 632.785 1106.74 632.487 1102.82 632.487H1084.75V658.799H1102.05C1103.9 658.799 1107.63 658.194 1113.33 656.923L1113.35 656.921ZM1083.75 659.796V631.489H1102.82C1110.74 631.489 1116.14 632.693 1119.02 635.099C1121.89 637.505 1123.33 640.957 1123.33 645.453C1123.33 648.493 1122.4 651.184 1120.55 653.527C1118.76 655.87 1116.43 657.327 1113.55 657.897C1107.87 659.163 1104.03 659.796 1102.05 659.796H1083.75Z" fill="#CD06FF"/>
<path opacity="0.2" fill-rule="evenodd" clip-rule="evenodd" d="M76.0084 543.186V512.218H145.116V573.112L144.676 573.409C131.788 582.115 120.325 588.091 110.296 591.297L110.292 591.299C100.328 594.441 88.5263 596 74.9064 596C58.1237 596 44.3332 593.166 33.5967 587.426L33.5945 587.425C22.9265 581.688 14.6403 573.146 8.73888 561.834L8.7368 561.83C2.90291 550.524 0 537.572 0 523C0 507.663 3.19273 494.286 9.61657 482.903C16.0479 471.444 25.4717 462.754 37.8551 456.843L37.859 456.841C47.5676 452.256 60.5466 450 76.7275 450C92.286 450 104.028 451.392 111.866 454.24C119.75 457.082 126.288 461.515 131.454 467.541C136.68 473.498 140.574 481.045 143.161 490.148L143.463 491.207L99.6203 498.962L99.3491 498.136C97.6849 493.066 94.8712 489.238 90.924 486.59L90.918 486.586C87.0386 483.943 82.0136 482.582 75.769 482.582C66.5127 482.582 59.1992 485.769 53.7217 492.112C48.3284 498.368 45.5288 508.434 45.5288 522.525C45.5288 537.519 48.3669 547.98 53.8094 554.164C59.335 560.369 67.0251 563.513 77.0151 563.513C81.7728 563.513 86.302 562.831 90.6074 561.47C94.7939 560.147 99.6063 557.907 105.051 554.728V543.186H76.0084ZM106.057 542.188V555.297C100.37 558.653 95.3222 561.028 90.9132 562.421C86.5041 563.814 81.8714 564.511 77.0151 564.511C66.7911 564.511 58.8037 561.281 53.0528 554.822C47.3657 548.362 44.5222 537.597 44.5222 522.525C44.5222 508.34 47.3338 497.986 52.9569 491.463C58.644 484.877 66.248 481.584 75.769 481.584C82.159 481.584 87.3987 482.978 91.4883 485.764C95.6417 488.55 98.5811 492.572 100.306 497.828L142.192 490.418C142.101 490.095 142.007 489.774 141.912 489.455C139.359 480.895 135.619 473.807 130.691 468.191C125.643 462.301 119.253 457.964 111.521 455.177C103.853 452.391 92.2551 450.998 76.7275 450.998C60.6248 450.998 47.813 453.246 38.292 457.742C26.0872 463.568 16.8218 472.117 10.4957 483.389C4.16968 494.598 1.00666 507.802 1.00666 523C1.00666 537.438 3.88214 550.23 9.63309 561.376C15.4479 572.521 23.5951 580.912 34.0746 586.548C44.618 592.184 58.2286 595.002 74.9064 595.002C88.453 595.002 100.147 593.451 109.987 590.348C119.892 587.182 131.266 581.26 144.109 572.585V513.216H77.0151V542.188H106.057ZM247.546 592.628L240.645 569.64H191.187L184.381 592.628H140.003L192.816 453.372H240.166L290.789 586.855V453.372H347.915L369.961 538.103L391.91 453.372H448.845V592.628H413.38V486.429L385.872 592.628H353.762L326.349 486.429V592.628H247.546ZM246.795 593.625L239.894 570.638H191.94L185.135 593.625H138.55L192.119 452.375H240.863L289.783 581.365V452.375H348.695L369.959 534.1L391.129 452.375H449.851V593.625H412.374V494.327L386.653 593.625H352.981L327.356 494.354V593.625H246.795ZM216.012 489.469L200.58 539.528H231.539L216.012 489.469ZM216.015 492.873L201.94 538.531H230.177L216.015 492.873ZM459.834 452.375H578.209V484.102H505.363V504.239H572.937V534.637H505.363V560.093H580.317V593.625H459.834V452.375ZM504.357 561.091V533.639H571.93V505.237H504.357V483.104H577.202V453.372H460.841V592.628H579.311V561.091H504.357ZM745.27 587.228L745.268 587.229C734.663 593.097 721.478 596 705.766 596C689.82 596 676.527 593.484 665.933 588.396L665.931 588.395C655.384 583.298 646.841 575.237 640.297 564.258C633.729 553.237 630.477 539.497 630.477 523.095C630.477 500.171 636.925 482.19 649.941 469.29C662.956 456.392 681.036 450 704.041 450C727.609 450 745.916 456.29 758.81 469.003C771.7 481.65 778.085 499.348 778.085 521.955C778.085 538.334 775.289 551.87 769.63 562.506C764.043 573.065 755.915 581.31 745.27 587.228ZM768.739 562.041C774.299 551.592 777.078 538.23 777.078 521.955C777.078 499.537 770.752 482.123 758.1 469.711C745.448 457.235 727.428 450.998 704.041 450.998C681.229 450.998 663.433 457.33 650.653 469.996C637.873 482.661 631.483 500.361 631.483 523.095C631.483 539.37 634.71 552.922 641.164 563.751C647.618 574.58 656.021 582.495 666.372 587.498C676.788 592.501 689.919 595.002 705.766 595.002C721.358 595.002 734.361 592.121 744.777 586.358C755.257 580.532 763.244 572.426 768.739 562.041ZM724.853 493.359L724.846 493.351C719.759 487.52 712.832 484.577 703.945 484.577C695.461 484.577 688.72 487.538 683.623 493.442C678.557 499.31 675.91 509.175 675.91 523.285C675.91 537.264 678.523 547.068 683.528 552.938C688.617 558.833 695.512 561.803 704.329 561.803C713.419 561.803 720.334 558.885 725.221 553.134C730.088 547.406 732.652 536.925 732.652 521.385C732.652 508.376 729.982 499.108 724.853 493.359ZM682.763 553.587C677.523 547.444 674.903 537.343 674.903 523.285C674.903 509.1 677.555 498.936 682.858 492.793C688.162 486.651 695.191 483.579 703.945 483.579C713.083 483.579 720.304 486.619 725.607 492.698C730.975 498.714 733.659 508.277 733.659 521.385C733.659 536.964 731.103 547.761 725.991 553.777C720.879 559.793 713.658 562.801 704.329 562.801C695.255 562.801 688.066 559.729 682.763 553.587ZM760.972 452.375H808.601L839.484 550.222L869.899 452.375H1030.68V484.102H957.833V504.239H1025.41V534.637H957.833V560.093H1032.79V593.625H912.304V462.727L863.291 593.625H814.833L760.972 452.375ZM913.31 457.171V592.628H1031.78V561.091H956.826V533.639H1024.4V505.237H956.826V483.104H1029.67V453.372H870.642L839.491 553.587L807.861 453.372H762.429L815.529 592.628H862.591L913.31 457.171ZM1039.13 593.625V452.375H1112.5C1125.95 452.375 1136.34 453.515 1143.58 455.843C1150.88 458.191 1156.78 462.569 1161.25 468.948C1165.73 475.287 1167.95 483.001 1167.95 492.033C1167.95 499.903 1166.26 506.765 1162.83 512.579L1162.83 512.584C1159.41 518.304 1154.72 522.949 1148.77 526.514L1148.25 525.66C1154.07 522.177 1158.64 517.649 1161.96 512.076C1165.28 506.44 1166.94 499.759 1166.94 492.033C1166.94 483.168 1164.77 475.663 1160.42 469.521C1156.08 463.315 1150.36 459.072 1143.27 456.792C1136.18 454.512 1125.92 453.372 1112.5 453.372H1040.13V592.628H1083.75V536.109H1087.58C1091.54 536.109 1095.09 537.185 1098.22 539.338C1100.52 540.985 1103.14 544.563 1106.08 550.072L1129.27 592.628H1178.35L1157.36 552.257C1156.34 550.23 1154.29 547.349 1151.22 543.613C1148.22 539.877 1145.92 537.438 1144.32 536.299C1142.24 534.791 1139.06 533.284 1134.79 531.777C1134.22 531.574 1133.63 531.372 1133.01 531.169C1133.64 531.028 1134.25 530.884 1134.84 530.736C1140.43 529.354 1144.9 527.662 1148.25 525.66L1148.77 526.514C1145.61 528.407 1141.51 530.011 1136.51 531.339C1140.14 532.697 1142.96 534.077 1144.91 535.489C1146.63 536.717 1149.01 539.253 1152 542.983C1155.08 546.724 1157.18 549.675 1158.26 551.805C1158.26 551.807 1158.26 551.809 1158.26 551.811L1180 593.625H1128.67L1105.19 550.546L1105.19 550.538C1102.26 545.046 1099.73 541.656 1097.64 540.153C1094.68 538.124 1091.34 537.106 1087.58 537.106H1084.75V593.625H1039.13ZM1113.35 506.921L1113.36 506.918C1115.99 506.397 1118.11 505.076 1119.75 502.925L1119.75 502.918L1119.76 502.912C1121.47 500.748 1122.32 498.275 1122.32 495.453C1122.32 491.184 1120.97 488.039 1118.37 485.861C1117.1 484.799 1115.2 483.947 1112.59 483.365C1109.99 482.785 1106.74 482.487 1102.82 482.487H1084.75V508.799H1102.05C1103.9 508.799 1107.63 508.194 1113.33 506.923L1113.35 506.921ZM1083.75 509.796V481.489H1102.82C1110.74 481.489 1116.14 482.693 1119.02 485.099C1121.89 487.505 1123.33 490.957 1123.33 495.453C1123.33 498.493 1122.4 501.184 1120.55 503.527C1118.76 505.87 1116.43 507.327 1113.55 507.897C1107.87 509.163 1104.03 509.796 1102.05 509.796H1083.75Z" fill="#CD06FF"/>
<path opacity="0.2" fill-rule="evenodd" clip-rule="evenodd" d="M76.0084 93.1856V62.2184H145.116V123.112L144.676 123.409C131.788 132.115 120.325 138.091 110.296 141.297L110.292 141.299C100.328 144.441 88.5263 146 74.9064 146C58.1237 146 44.3332 143.166 33.5967 137.426L33.5945 137.425C22.9265 131.688 14.6403 123.146 8.73888 111.834L8.7368 111.83C2.90291 100.524 0 87.5721 0 73C0 57.6629 3.19273 44.2858 9.61657 32.9032C16.0479 21.444 25.4717 12.7545 37.8551 6.84312L37.8589 6.8413C47.5676 2.2565 60.5466 0 76.7275 0C92.286 0 104.028 1.39208 111.866 4.2402C119.75 7.08173 126.288 11.5146 131.454 17.5407C136.68 23.4981 140.574 31.0454 143.161 40.148L143.463 41.2072L99.6203 48.9624L99.3491 48.1363C97.6849 43.0662 94.8712 39.2381 90.924 36.5901L90.918 36.5861C87.0386 33.9429 82.0136 32.582 75.769 32.582C66.5127 32.582 59.1992 35.7688 53.7217 42.112C48.3284 48.3685 45.5288 58.4339 45.5288 72.525C45.5288 87.5195 48.3669 97.9804 53.8094 104.164C59.335 110.369 67.0251 113.513 77.0151 113.513C81.7728 113.513 86.302 112.831 90.6074 111.47C94.7939 110.147 99.6063 107.907 105.051 104.728V93.1856H76.0084ZM106.057 92.188V105.297C100.37 108.653 95.3222 111.028 90.9132 112.421C86.5041 113.814 81.8714 114.511 77.0151 114.511C66.7911 114.511 58.8037 111.281 53.0528 104.822C47.3657 98.3623 44.5222 87.5968 44.5222 72.525C44.5222 58.3399 47.3338 47.986 52.9569 41.4633C58.644 34.8774 66.248 31.5844 75.769 31.5844C82.159 31.5844 87.3987 32.9776 91.4883 35.7639C95.6417 38.5503 98.5811 42.5716 100.306 47.8277L142.192 40.4185C142.101 40.0952 142.007 39.7739 141.912 39.4547C139.359 30.8954 135.619 23.8074 130.691 18.1908C125.643 12.3014 119.253 7.96357 111.521 5.17719C103.853 2.39082 92.2551 0.997638 76.7275 0.997638C60.6248 0.997638 47.813 3.24573 38.292 7.74192C26.0872 13.568 16.8218 22.1171 10.4957 33.3892C4.16968 44.598 1.00666 57.8016 1.00666 73C1.00666 87.4385 3.88214 100.23 9.63309 111.376C15.4479 122.521 23.5951 130.912 34.0746 136.548C44.618 142.184 58.2286 145.002 74.9064 145.002C88.4531 145.002 100.147 143.451 109.987 140.348C119.892 137.182 131.266 131.26 144.109 122.585V63.216H77.0151V92.188H106.057ZM247.546 142.628L240.645 119.64H191.187L184.381 142.628H140.003L192.816 3.37239H240.166L290.789 136.855V3.37239H347.915L369.961 88.1034L391.91 3.37239H448.845V142.628H413.38V36.4289L385.872 142.628H353.762L326.349 36.4289V142.628H247.546ZM246.795 143.625L239.894 120.638H191.94L185.135 143.625H138.55L192.119 2.37475H240.863L289.783 131.365V2.37475H348.695L369.959 84.0996L391.129 2.37475H449.851V143.625H412.374V44.3274L386.653 143.625H352.981L327.356 44.3542V143.625H246.795ZM216.012 39.4686L200.58 89.5282H231.539L216.012 39.4686ZM216.015 42.8734L201.94 88.5306H230.177L216.015 42.8734ZM459.834 2.37475H578.209V34.1019H505.363V54.2392H572.937V84.6365H505.363V110.093H580.317V143.625H459.834V2.37475ZM504.357 111.091V83.6389H571.93V55.2369H504.357V33.1042H577.202V3.37239H460.841V142.628H579.311V111.091H504.357ZM745.27 137.228L745.268 137.229C734.663 143.097 721.478 146 705.766 146C689.82 146 676.527 143.484 665.933 138.396L665.931 138.395C655.384 133.298 646.841 125.237 640.297 114.258C633.729 103.237 630.477 89.497 630.477 73.095C630.477 50.171 636.925 32.1896 649.941 19.2902C662.956 6.39178 681.036 0 704.041 0C727.609 0 745.916 6.28967 758.81 19.0034C771.7 31.6501 778.085 49.3481 778.085 71.9551C778.085 88.3341 775.289 101.87 769.63 112.506C764.043 123.065 755.915 131.31 745.27 137.228ZM768.739 112.041C774.299 101.592 777.078 88.23 777.078 71.9551C777.078 49.5375 770.752 32.1227 758.1 19.7107C745.448 7.23531 727.428 0.997638 704.041 0.997638C681.229 0.997638 663.433 7.3303 650.653 19.9956C637.873 32.6609 631.483 50.3607 631.483 73.095C631.483 89.3699 634.71 102.922 641.164 113.751C647.618 124.58 656.021 132.495 666.372 137.498C676.788 142.501 689.919 145.002 705.766 145.002C721.358 145.002 734.361 142.121 744.777 136.358C755.257 130.532 763.244 122.426 768.739 112.041ZM724.853 43.3591L724.846 43.3507C719.759 37.5198 712.832 34.5768 703.945 34.5768C695.461 34.5768 688.72 37.5384 683.623 43.4418C678.557 49.3101 675.91 59.1754 675.91 73.285C675.91 87.2635 678.523 97.0677 683.527 102.938C688.617 108.833 695.512 111.803 704.329 111.803C713.419 111.803 720.334 108.885 725.221 103.134C730.088 97.4059 732.652 86.9249 732.652 71.3852C732.652 58.3757 729.982 49.1077 724.853 43.3591ZM682.763 103.587C677.523 97.4441 674.903 87.3435 674.903 73.285C674.903 59.0998 677.555 48.9359 682.858 42.7932C688.162 36.6505 695.191 33.5792 703.945 33.5792C713.083 33.5792 720.304 36.6189 725.607 42.6982C730.975 48.7142 733.659 58.2766 733.659 71.3852C733.659 86.9635 731.103 97.7607 725.991 103.777C720.879 109.793 713.658 112.801 704.329 112.801C695.255 112.801 688.066 109.729 682.763 103.587ZM760.972 2.37475H808.601L839.484 100.222L869.899 2.37475H1030.68V34.1019H957.833V54.2392H1025.41V84.6365H957.833V110.093H1032.79V143.625H912.304V12.7275L863.291 143.625H814.833L760.972 2.37475ZM913.311 7.17129V142.628H1031.78V111.091H956.826V83.6389H1024.4V55.2369H956.826V33.1042H1029.67V3.37239H870.642L839.491 103.587L807.861 3.37239H762.429L815.529 142.628H862.591L913.311 7.17129ZM1039.13 143.625V2.37475H1112.5C1125.95 2.37475 1136.34 3.51498 1143.58 5.84305C1150.88 8.19126 1156.78 12.5691 1161.25 18.948C1165.73 25.2873 1167.95 33.0008 1167.95 42.0333C1167.95 49.9033 1166.26 56.7647 1162.83 62.5794L1162.83 62.5837C1159.41 68.3042 1154.72 72.9488 1148.77 76.5135L1148.25 75.6597C1154.07 72.1768 1158.64 67.6489 1161.96 62.0762C1165.28 56.4401 1166.94 49.7591 1166.94 42.0333C1166.94 33.1676 1164.77 25.6634 1160.42 19.5207C1156.08 13.3147 1150.36 9.07178 1143.27 6.79202C1136.18 4.51226 1125.92 3.37239 1112.5 3.37239H1040.13V142.628H1083.75V86.1086H1087.58C1091.54 86.1086 1095.09 87.1852 1098.22 89.3383C1100.52 90.9848 1103.14 94.5627 1106.08 100.072L1129.27 142.628H1178.35L1157.36 102.257C1156.34 100.23 1154.29 97.3491 1151.22 93.6128C1148.22 89.8765 1145.92 87.4385 1144.32 86.2986C1142.24 84.7913 1139.06 83.2841 1134.79 81.7768C1134.22 81.5743 1133.63 81.3717 1133.01 81.1691C1133.64 81.0284 1134.25 80.8842 1134.84 80.7364C1140.43 79.3543 1144.9 77.6621 1148.25 75.6597L1148.77 76.5135C1145.61 78.4071 1141.51 80.0106 1136.51 81.3391C1140.14 82.6974 1142.96 84.0767 1144.91 85.489C1146.63 86.7172 1149.01 89.2534 1152 92.9832C1155.08 96.7241 1157.18 99.6746 1158.26 101.805C1158.26 101.807 1158.26 101.809 1158.26 101.811L1180 143.625H1128.67L1105.19 100.546L1105.19 100.538C1102.26 95.0456 1099.73 91.6557 1097.64 90.153C1094.68 88.124 1091.34 87.1062 1087.58 87.1062H1084.75V143.625H1039.13ZM1113.35 56.9206L1113.36 56.9183C1115.99 56.3968 1118.11 55.076 1119.75 52.9251L1119.75 52.9183L1119.76 52.9116C1121.47 50.7481 1122.32 48.2746 1122.32 45.4529C1122.32 41.1842 1120.97 38.0391 1118.37 35.8612C1117.1 34.7988 1115.2 33.9469 1112.59 33.3651C1109.99 32.785 1106.74 32.487 1102.82 32.487H1084.75V58.7988H1102.05C1103.9 58.7988 1107.63 58.1936 1113.33 56.9232L1113.35 56.9206ZM1083.75 59.7964V31.4894H1102.82C1110.74 31.4894 1116.14 32.6926 1119.02 35.099C1121.89 37.5054 1123.33 40.9567 1123.33 45.4529C1123.33 48.4926 1122.4 51.184 1120.55 53.5271C1118.76 55.8701 1116.43 57.3267 1113.55 57.8966C1107.87 59.1631 1104.03 59.7964 1102.05 59.7964H1083.75Z" fill="#CD06FF"/>
<path opacity="0.2" fill-rule="evenodd" clip-rule="evenodd" d="M76.0084 243.186V212.218H145.116V273.112L144.676 273.409C131.788 282.115 120.325 288.091 110.296 291.297L110.292 291.299C100.328 294.441 88.5263 296 74.9064 296C58.1237 296 44.3332 293.166 33.5967 287.426L33.5945 287.425C22.9265 281.688 14.6403 273.146 8.73888 261.834L8.7368 261.83C2.90291 250.524 0 237.572 0 223C0 207.663 3.19273 194.286 9.61657 182.903C16.0479 171.444 25.4717 162.754 37.8551 156.843L37.859 156.841C47.5676 152.256 60.5466 150 76.7275 150C92.286 150 104.028 151.392 111.866 154.24C119.75 157.082 126.288 161.515 131.454 167.541C136.68 173.498 140.574 181.045 143.161 190.148L143.463 191.207L99.6203 198.962L99.3491 198.136C97.6849 193.066 94.8712 189.238 90.924 186.59L90.918 186.586C87.0386 183.943 82.0136 182.582 75.769 182.582C66.5127 182.582 59.1992 185.769 53.7217 192.112C48.3284 198.368 45.5288 208.434 45.5288 222.525C45.5288 237.519 48.3669 247.98 53.8094 254.164C59.335 260.369 67.0251 263.513 77.0151 263.513C81.7728 263.513 86.302 262.831 90.6074 261.47C94.7939 260.147 99.6063 257.907 105.051 254.728V243.186H76.0084ZM106.057 242.188V255.297C100.37 258.653 95.3222 261.028 90.9132 262.421C86.5041 263.814 81.8714 264.511 77.0151 264.511C66.7911 264.511 58.8037 261.281 53.0528 254.822C47.3657 248.362 44.5222 237.597 44.5222 222.525C44.5222 208.34 47.3338 197.986 52.9569 191.463C58.644 184.877 66.248 181.584 75.769 181.584C82.159 181.584 87.3987 182.978 91.4883 185.764C95.6417 188.55 98.5811 192.572 100.306 197.828L142.192 190.418C142.101 190.095 142.007 189.774 141.912 189.455C139.359 180.895 135.619 173.807 130.691 168.191C125.643 162.301 119.253 157.964 111.521 155.177C103.853 152.391 92.2551 150.998 76.7275 150.998C60.6248 150.998 47.813 153.246 38.292 157.742C26.0872 163.568 16.8218 172.117 10.4957 183.389C4.16968 194.598 1.00666 207.802 1.00666 223C1.00666 237.438 3.88214 250.23 9.63309 261.376C15.4479 272.521 23.5951 280.912 34.0746 286.548C44.618 292.184 58.2286 295.002 74.9064 295.002C88.453 295.002 100.147 293.451 109.987 290.348C119.892 287.182 131.266 281.26 144.109 272.585V213.216H77.0151V242.188H106.057ZM247.546 292.628L240.645 269.64H191.187L184.381 292.628H140.003L192.816 153.372H240.166L290.789 286.855V153.372H347.915L369.961 238.103L391.91 153.372H448.845V292.628H413.38V186.429L385.872 292.628H353.762L326.349 186.429V292.628H247.546ZM246.795 293.625L239.894 270.638H191.94L185.135 293.625H138.55L192.119 152.375H240.863L289.783 281.365V152.375H348.695L369.959 234.1L391.129 152.375H449.851V293.625H412.374V194.327L386.653 293.625H352.981L327.356 194.354V293.625H246.795ZM216.012 189.469L200.58 239.528H231.539L216.012 189.469ZM216.015 192.873L201.94 238.531H230.177L216.015 192.873ZM459.834 152.375H578.209V184.102H505.363V204.239H572.937V234.637H505.363V260.093H580.317V293.625H459.834V152.375ZM504.357 261.091V233.639H571.93V205.237H504.357V183.104H577.202V153.372H460.841V292.628H579.311V261.091H504.357ZM745.27 287.228L745.268 287.229C734.663 293.097 721.478 296 705.766 296C689.82 296 676.527 293.484 665.933 288.396L665.931 288.395C655.384 283.298 646.841 275.237 640.297 264.258C633.729 253.237 630.477 239.497 630.477 223.095C630.477 200.171 636.925 182.19 649.941 169.29C662.956 156.392 681.036 150 704.041 150C727.609 150 745.916 156.29 758.81 169.003C771.7 181.65 778.085 199.348 778.085 221.955C778.085 238.334 775.289 251.87 769.63 262.506C764.043 273.065 755.915 281.31 745.27 287.228ZM768.739 262.041C774.299 251.592 777.078 238.23 777.078 221.955C777.078 199.537 770.752 182.123 758.1 169.711C745.448 157.235 727.428 150.998 704.041 150.998C681.229 150.998 663.433 157.33 650.653 169.996C637.873 182.661 631.483 200.361 631.483 223.095C631.483 239.37 634.71 252.922 641.164 263.751C647.618 274.58 656.021 282.495 666.372 287.498C676.788 292.501 689.919 295.002 705.766 295.002C721.358 295.002 734.361 292.121 744.777 286.358C755.257 280.532 763.244 272.426 768.739 262.041ZM724.853 193.359L724.846 193.351C719.759 187.52 712.832 184.577 703.945 184.577C695.461 184.577 688.72 187.538 683.623 193.442C678.557 199.31 675.91 209.175 675.91 223.285C675.91 237.264 678.523 247.068 683.528 252.938C688.617 258.833 695.512 261.803 704.329 261.803C713.419 261.803 720.334 258.885 725.221 253.134C730.088 247.406 732.652 236.925 732.652 221.385C732.652 208.376 729.982 199.108 724.853 193.359ZM682.763 253.587C677.523 247.444 674.903 237.343 674.903 223.285C674.903 209.1 677.555 198.936 682.858 192.793C688.162 186.651 695.191 183.579 703.945 183.579C713.083 183.579 720.304 186.619 725.607 192.698C730.975 198.714 733.659 208.277 733.659 221.385C733.659 236.964 731.103 247.761 725.991 253.777C720.879 259.793 713.658 262.801 704.329 262.801C695.255 262.801 688.066 259.729 682.763 253.587ZM760.972 152.375H808.601L839.484 250.222L869.899 152.375H1030.68V184.102H957.833V204.239H1025.41V234.637H957.833V260.093H1032.79V293.625H912.304V162.727L863.291 293.625H814.833L760.972 152.375ZM913.31 157.171V292.628H1031.78V261.091H956.826V233.639H1024.4V205.237H956.826V183.104H1029.67V153.372H870.642L839.491 253.587L807.861 153.372H762.429L815.529 292.628H862.591L913.31 157.171ZM1039.13 293.625V152.375H1112.5C1125.95 152.375 1136.34 153.515 1143.58 155.843C1150.88 158.191 1156.78 162.569 1161.25 168.948C1165.73 175.287 1167.95 183.001 1167.95 192.033C1167.95 199.903 1166.26 206.765 1162.83 212.579L1162.83 212.584C1159.41 218.304 1154.72 222.949 1148.77 226.514L1148.25 225.66C1154.07 222.177 1158.64 217.649 1161.96 212.076C1165.28 206.44 1166.94 199.759 1166.94 192.033C1166.94 183.168 1164.77 175.663 1160.42 169.521C1156.08 163.315 1150.36 159.072 1143.27 156.792C1136.18 154.512 1125.92 153.372 1112.5 153.372H1040.13V292.628H1083.75V236.109H1087.58C1091.54 236.109 1095.09 237.185 1098.22 239.338C1100.52 240.985 1103.14 244.563 1106.08 250.072L1129.27 292.628H1178.35L1157.36 252.257C1156.34 250.23 1154.29 247.349 1151.22 243.613C1148.22 239.877 1145.92 237.438 1144.32 236.299C1142.24 234.791 1139.06 233.284 1134.79 231.777C1134.22 231.574 1133.63 231.372 1133.01 231.169C1133.64 231.028 1134.25 230.884 1134.84 230.736C1140.43 229.354 1144.9 227.662 1148.25 225.66L1148.77 226.514C1145.61 228.407 1141.51 230.011 1136.51 231.339C1140.14 232.697 1142.96 234.077 1144.91 235.489C1146.63 236.717 1149.01 239.253 1152 242.983C1155.08 246.724 1157.18 249.675 1158.26 251.805C1158.26 251.807 1158.26 251.809 1158.26 251.811L1180 293.625H1128.67L1105.19 250.546L1105.19 250.538C1102.26 245.046 1099.73 241.656 1097.64 240.153C1094.68 238.124 1091.34 237.106 1087.58 237.106H1084.75V293.625H1039.13ZM1113.35 206.921L1113.36 206.918C1115.99 206.397 1118.11 205.076 1119.75 202.925L1119.75 202.918L1119.76 202.912C1121.47 200.748 1122.32 198.275 1122.32 195.453C1122.32 191.184 1120.97 188.039 1118.37 185.861C1117.1 184.799 1115.2 183.947 1112.59 183.365C1109.99 182.785 1106.74 182.487 1102.82 182.487H1084.75V208.799H1102.05C1103.9 208.799 1107.63 208.194 1113.33 206.923L1113.35 206.921ZM1083.75 209.796V181.489H1102.82C1110.74 181.489 1116.14 182.693 1119.02 185.099C1121.89 187.505 1123.33 190.957 1123.33 195.453C1123.33 198.493 1122.4 201.184 1120.55 203.527C1118.76 205.87 1116.43 207.327 1113.55 207.897C1107.87 209.163 1104.03 209.796 1102.05 209.796H1083.75Z" fill="#CD06FF"/>
<path opacity="0.2" fill-rule="evenodd" clip-rule="evenodd" d="M76.0084 393.186V362.218H145.116V423.112L144.676 423.409C131.788 432.115 120.325 438.091 110.296 441.297L110.292 441.299C100.328 444.441 88.5263 446 74.9064 446C58.1237 446 44.3332 443.166 33.5967 437.426L33.5945 437.425C22.9265 431.688 14.6403 423.146 8.73888 411.834L8.7368 411.83C2.90291 400.524 0 387.572 0 373C0 357.663 3.19273 344.286 9.61657 332.903C16.0479 321.444 25.4717 312.754 37.8551 306.843L37.859 306.841C47.5676 302.256 60.5466 300 76.7275 300C92.286 300 104.028 301.392 111.866 304.24C119.75 307.082 126.288 311.515 131.454 317.541C136.68 323.498 140.574 331.045 143.161 340.148L143.463 341.207L99.6203 348.962L99.3491 348.136C97.6849 343.066 94.8712 339.238 90.924 336.59L90.918 336.586C87.0386 333.943 82.0136 332.582 75.769 332.582C66.5127 332.582 59.1992 335.769 53.7217 342.112C48.3284 348.368 45.5288 358.434 45.5288 372.525C45.5288 387.519 48.3669 397.98 53.8094 404.164C59.335 410.369 67.0251 413.513 77.0151 413.513C81.7728 413.513 86.302 412.831 90.6074 411.47C94.7939 410.147 99.6063 407.907 105.051 404.728V393.186H76.0084ZM106.057 392.188V405.297C100.37 408.653 95.3222 411.028 90.9132 412.421C86.5041 413.814 81.8714 414.511 77.0151 414.511C66.7911 414.511 58.8037 411.281 53.0528 404.822C47.3657 398.362 44.5222 387.597 44.5222 372.525C44.5222 358.34 47.3338 347.986 52.9569 341.463C58.644 334.877 66.248 331.584 75.769 331.584C82.159 331.584 87.3987 332.978 91.4883 335.764C95.6417 338.55 98.5811 342.572 100.306 347.828L142.192 340.418C142.101 340.095 142.007 339.774 141.912 339.455C139.359 330.895 135.619 323.807 130.691 318.191C125.643 312.301 119.253 307.964 111.521 305.177C103.853 302.391 92.2551 300.998 76.7275 300.998C60.6248 300.998 47.813 303.246 38.292 307.742C26.0872 313.568 16.8218 322.117 10.4957 333.389C4.16968 344.598 1.00666 357.802 1.00666 373C1.00666 387.438 3.88214 400.23 9.63309 411.376C15.4479 422.521 23.5951 430.912 34.0746 436.548C44.618 442.184 58.2286 445.002 74.9064 445.002C88.453 445.002 100.147 443.451 109.987 440.348C119.892 437.182 131.266 431.26 144.109 422.585V363.216H77.0151V392.188H106.057ZM247.546 442.628L240.645 419.64H191.187L184.381 442.628H140.003L192.816 303.372H240.166L290.789 436.855V303.372H347.915L369.961 388.103L391.91 303.372H448.845V442.628H413.38V336.429L385.872 442.628H353.762L326.349 336.429V442.628H247.546ZM246.795 443.625L239.894 420.638H191.94L185.135 443.625H138.55L192.119 302.375H240.863L289.783 431.365V302.375H348.695L369.959 384.1L391.129 302.375H449.851V443.625H412.374V344.327L386.653 443.625H352.981L327.356 344.354V443.625H246.795ZM216.012 339.469L200.58 389.528H231.539L216.012 339.469ZM216.015 342.873L201.94 388.531H230.177L216.015 342.873ZM459.834 302.375H578.209V334.102H505.363V354.239H572.937V384.637H505.363V410.093H580.317V443.625H459.834V302.375ZM504.357 411.091V383.639H571.93V355.237H504.357V333.104H577.202V303.372H460.841V442.628H579.311V411.091H504.357ZM745.27 437.228L745.268 437.229C734.663 443.097 721.478 446 705.766 446C689.82 446 676.527 443.484 665.933 438.396L665.931 438.395C655.384 433.298 646.841 425.237 640.297 414.258C633.729 403.237 630.477 389.497 630.477 373.095C630.477 350.171 636.925 332.19 649.941 319.29C662.956 306.392 681.036 300 704.041 300C727.609 300 745.916 306.29 758.81 319.003C771.7 331.65 778.085 349.348 778.085 371.955C778.085 388.334 775.289 401.87 769.63 412.506C764.043 423.065 755.915 431.31 745.27 437.228ZM768.739 412.041C774.299 401.592 777.078 388.23 777.078 371.955C777.078 349.537 770.752 332.123 758.1 319.711C745.448 307.235 727.428 300.998 704.041 300.998C681.229 300.998 663.433 307.33 650.653 319.996C637.873 332.661 631.483 350.361 631.483 373.095C631.483 389.37 634.71 402.922 641.164 413.751C647.618 424.58 656.021 432.495 666.372 437.498C676.788 442.501 689.919 445.002 705.766 445.002C721.358 445.002 734.361 442.121 744.777 436.358C755.257 430.532 763.244 422.426 768.739 412.041ZM724.853 343.359L724.846 343.351C719.759 337.52 712.832 334.577 703.945 334.577C695.461 334.577 688.72 337.538 683.623 343.442C678.557 349.31 675.91 359.175 675.91 373.285C675.91 387.264 678.523 397.068 683.528 402.938C688.617 408.833 695.512 411.803 704.329 411.803C713.419 411.803 720.334 408.885 725.221 403.134C730.088 397.406 732.652 386.925 732.652 371.385C732.652 358.376 729.982 349.108 724.853 343.359ZM682.763 403.587C677.523 397.444 674.903 387.343 674.903 373.285C674.903 359.1 677.555 348.936 682.858 342.793C688.162 336.651 695.191 333.579 703.945 333.579C713.083 333.579 720.304 336.619 725.607 342.698C730.975 348.714 733.659 358.277 733.659 371.385C733.659 386.964 731.103 397.761 725.991 403.777C720.879 409.793 713.658 412.801 704.329 412.801C695.255 412.801 688.066 409.729 682.763 403.587ZM760.972 302.375H808.601L839.484 400.222L869.899 302.375H1030.68V334.102H957.833V354.239H1025.41V384.637H957.833V410.093H1032.79V443.625H912.304V312.727L863.291 443.625H814.833L760.972 302.375ZM913.31 307.171V442.628H1031.78V411.091H956.826V383.639H1024.4V355.237H956.826V333.104H1029.67V303.372H870.642L839.491 403.587L807.861 303.372H762.429L815.529 442.628H862.591L913.31 307.171ZM1039.13 443.625V302.375H1112.5C1125.95 302.375 1136.34 303.515 1143.58 305.843C1150.88 308.191 1156.78 312.569 1161.25 318.948C1165.73 325.287 1167.95 333.001 1167.95 342.033C1167.95 349.903 1166.26 356.765 1162.83 362.579L1162.83 362.584C1159.41 368.304 1154.72 372.949 1148.77 376.514L1148.25 375.66C1154.07 372.177 1158.64 367.649 1161.96 362.076C1165.28 356.44 1166.94 349.759 1166.94 342.033C1166.94 333.168 1164.77 325.663 1160.42 319.521C1156.08 313.315 1150.36 309.072 1143.27 306.792C1136.18 304.512 1125.92 303.372 1112.5 303.372H1040.13V442.628H1083.75V386.109H1087.58C1091.54 386.109 1095.09 387.185 1098.22 389.338C1100.52 390.985 1103.14 394.563 1106.08 400.072L1129.27 442.628H1178.35L1157.36 402.257C1156.34 400.23 1154.29 397.349 1151.22 393.613C1148.22 389.877 1145.92 387.438 1144.32 386.299C1142.24 384.791 1139.06 383.284 1134.79 381.777C1134.22 381.574 1133.63 381.372 1133.01 381.169C1133.64 381.028 1134.25 380.884 1134.84 380.736C1140.43 379.354 1144.9 377.662 1148.25 375.66L1148.77 376.514C1145.61 378.407 1141.51 380.011 1136.51 381.339C1140.14 382.697 1142.96 384.077 1144.91 385.489C1146.63 386.717 1149.01 389.253 1152 392.983C1155.08 396.724 1157.18 399.675 1158.26 401.805C1158.26 401.807 1158.26 401.809 1158.26 401.811L1180 443.625H1128.67L1105.19 400.546L1105.19 400.538C1102.26 395.046 1099.73 391.656 1097.64 390.153C1094.68 388.124 1091.34 387.106 1087.58 387.106H1084.75V443.625H1039.13ZM1113.35 356.921L1113.36 356.918C1115.99 356.397 1118.11 355.076 1119.75 352.925L1119.75 352.918L1119.76 352.912C1121.47 350.748 1122.32 348.275 1122.32 345.453C1122.32 341.184 1120.97 338.039 1118.37 335.861C1117.1 334.799 1115.2 333.947 1112.59 333.365C1109.99 332.785 1106.74 332.487 1102.82 332.487H1084.75V358.799H1102.05C1103.9 358.799 1107.63 358.194 1113.33 356.923L1113.35 356.921ZM1083.75 359.796V331.489H1102.82C1110.74 331.489 1116.14 332.693 1119.02 335.099C1121.89 337.505 1123.33 340.957 1123.33 345.453C1123.33 348.493 1122.4 351.184 1120.55 353.527C1118.76 355.87 1116.43 357.327 1113.55 357.897C1107.87 359.163 1104.03 359.796 1102.05 359.796H1083.75Z" fill="#CD06FF"/>
</svg>
